# xmcd CD database file
#
# Track frame offsets:
#	150
#	21127
#	35515
#	52667
#	65937
#	88195
#	113180
#	131282
#	158757
#
# Disc length: 2265 seconds
#
# Revision: 0
# Processed by: cddbd v1.5.1PL0 Copyright (c) Steve Scherf et al.
# Submitted via: CDex 1.51
#
DISCID=7008d709
DTITLE=Rahsaan Roland Kirk and Al Hibbler - A Meeting Of Times
DYEAR=1972
DGENRE=Jazz
TTITLE0=01 Do Nothing till you hear from me
TTITLE1=02 Daybreak
TTITLE2=03 Lover come back to me
TTITLE3=04 Dont get around much anymore
TTITLE4=05 This love of mine
TTITLE5=06 Carney and Begard place
TTITLE6=07 I didnt know about you
TTITLE7=08 Something about believing
TTITLE8=09 Dream
EXTD=YEAR: 1972
EXTT0=
EXTT1=
EXTT2=
EXTT3=
EXTT4=
EXTT5=
EXTT6=
EXTT7=
EXTT8=
PLAYORDER=
